<?xml version="1.0" encoding="UTF-8" standalone="no"?>
<!DOCTYPE svg PUBLIC "-//W3C//DTD SVG 1.1//EN" "http://www.w3.org/Graphics/SVG/1.1/DTD/svg11.dtd">
<svg width="100%" height="100%" viewBox="0 0 1250 500" version="1.1" xmlns="http://www.w3.org/2000/svg" xmlns:xlink="http://www.w3.org/1999/xlink" xml:space="preserve" xmlns:serif="http://www.serif.com/" style="fill-rule:evenodd;clip-rule:evenodd;stroke-linejoin:round;stroke-miterlimit:2;">
    <g transform="matrix(1,0,0,1,8.75393,-5.25066)">
        <g transform="matrix(1.63967,0,0,1.63967,-51.066,-144.668)">
            <g transform="matrix(335.134,0,0,335.134,63.8677,387.497)">
                <path d="M0.143,-0.464L0.143,-0.714L0.214,-0.714L0.214,-0.536L0.143,-0.464ZM0,-0L0.143,-0L0.143,-0.321L0.173,-0.352L0.232,-0L0.375,-0L0.255,-0.413L0.357,-0.464L0.357,-0.786C0.357,-0.805 0.35,-0.822 0.336,-0.836C0.322,-0.85 0.305,-0.857 0.286,-0.857L0,-0.857L0,-0Z" style="fill-rule:nonzero;"/>
            </g>
            <g transform="matrix(335.134,0,0,335.134,189.461,387.497)">
                <path d="M0.143,-0.464L0.143,-0.714L0.214,-0.714L0.214,-0.536L0.143,-0.464ZM0,-0L0.143,-0L0.143,-0.321L0.214,-0.393L0.214,-0L0.357,-0L0.357,-0.786C0.357,-0.805 0.35,-0.822 0.336,-0.836C0.322,-0.85 0.305,-0.857 0.286,-0.857L0.071,-0.857C0.052,-0.857 0.035,-0.85 0.021,-0.836C0.007,-0.822 0,-0.805 0,-0.785L0,-0Z" style="fill-rule:nonzero;"/>
            </g>
            <g transform="matrix(335.134,0,0,335.134,315.055,387.497)">
                <path d="M0.071,-0L0.274,-0C0.294,-0 0.311,-0.007 0.325,-0.021C0.339,-0.035 0.346,-0.052 0.346,-0.071L0.346,-0.536L0.131,-0.393L0.131,-0.571L0.203,-0.571L0.203,-0.5L0.346,-0.571L0.346,-0.643C0.346,-0.663 0.339,-0.679 0.325,-0.693C0.311,-0.707 0.294,-0.714 0.274,-0.714L0.071,-0.714C0.052,-0.714 0.035,-0.707 0.021,-0.693C0.007,-0.679 -0,-0.662 -0,-0.643L-0,-0.178L0.203,-0.321L0.203,-0.143L0.131,-0.143L0.131,-0.214L-0,-0.143L-0,-0.071C-0,-0.052 0.007,-0.035 0.021,-0.021C0.035,-0.007 0.052,-0 0.071,-0Z" style="fill-rule:nonzero;"/>
            </g>
            <g transform="matrix(335.134,0,0,335.134,436.802,387.497)">
                <path d="M0.138,-0L0.303,-0L0.303,-0.143L0.21,-0.143L0.21,-0.5L0.296,-0.545L0.296,-0.688L0.21,-0.643L0.21,-0.857L0.067,-0.857L0.067,-0.571L0,-0.535L0,-0.392L0.067,-0.428L0.067,-0.071C0.067,-0.052 0.074,-0.035 0.087,-0.021L0.138,-0Z" style="fill-rule:nonzero;"/>
            </g>
            <g transform="matrix(335.134,0,0,335.134,546.932,387.497)">
                <path d="M0,-0L0.143,-0L0.143,-0.571L0.178,-0.571L0.178,-0.428L0.31,-0.5L0.31,-0.643C0.31,-0.663 0.303,-0.679 0.289,-0.693C0.275,-0.707 0.258,-0.714 0.239,-0.714L0.178,-0.714C0.169,-0.714 0.16,-0.707 0.153,-0.693C0.146,-0.679 0.143,-0.662 0.143,-0.643L0.143,-0.714L-0,-0.714L0,-0Z" style="fill-rule:nonzero;"/>
            </g>
            <g transform="matrix(335.134,0,0,335.134,656.734,387.497)">
                <path d="M0.214,-0.143L0.143,-0.143L0.143,-0.571L0.214,-0.571L0.214,-0.143ZM0.071,-0L0.286,-0C0.305,-0 0.322,-0.007 0.336,-0.021C0.35,-0.035 0.357,-0.052 0.357,-0.071L0.357,-0.643C0.357,-0.663 0.35,-0.679 0.336,-0.693C0.322,-0.707 0.305,-0.714 0.286,-0.714L0.071,-0.714C0.052,-0.714 0.035,-0.707 0.021,-0.693C0.007,-0.679 0,-0.662 0,-0.643L0,-0.071C0,-0.052 0.007,-0.035 0.021,-0.021C0.035,-0.007 0.052,-0 0.071,-0Z" style="fill-rule:nonzero;"/>
            </g>
        </g>
        <g transform="matrix(1.00058,-0.496477,0.491977,0.991511,-169.314,38.0827)">
            <ellipse cx="246.647" cy="347.493" rx="233.32" ry="92.704" style="fill:rgb(177,62,62);fill-opacity:0;"/>
            <path d="M246.647,252.256C224.339,252.622 202.797,254.322 182.377,256.868C158.468,259.848 136.132,264.163 115.983,269.565C106.202,272.188 96.916,274.986 88.241,278.095C40.916,295.057 11.508,320.006 11.32,347.493C11.064,368.868 28.41,388.745 57.907,405.308C66.707,410.249 76.513,415.05 87.361,419.341C109.805,428.218 136.402,435.374 165.81,440.214C190.986,444.358 218.221,446.673 246.647,447.109C281.275,447.446 314.248,445.079 343.898,439.747C367.253,435.548 388.524,429.509 407.05,422.452C426.696,414.968 443.326,406.244 455.914,396.457C474.879,381.712 484.985,364.8 484.397,347.493C484.247,343.483 483.51,339.569 482.305,335.7C475.031,312.339 447.545,290.876 405.846,275.885C363.908,260.808 307.971,251.839 246.647,252.256ZM246.647,257.322C307.149,257.734 362.189,267.361 403.396,282.704C441.948,297.059 468.732,316.018 474.573,337.973C475.405,341.101 475.656,344.29 475.537,347.493C475.112,359.373 468.128,370.203 456.539,380.082C450.869,384.916 444.055,389.421 436.303,393.744C426.411,399.26 414.988,404.408 402.192,408.931C384.231,415.279 363.621,420.266 341.173,424.29C312.304,429.466 280.359,432.956 246.647,433.284C218.844,433.71 192.172,432.087 167.414,428.966C138.542,425.326 112.313,419.563 89.984,412.042C79.247,408.425 69.369,404.558 60.632,400.118C32.43,385.784 15.572,367.488 15.333,347.493C15.151,321.054 43.799,297.412 89.103,280.494C97.675,277.293 106.831,274.29 116.541,271.68C136.575,266.296 158.869,262.247 182.704,259.809C203.035,257.73 224.492,256.959 246.647,257.322Z" style="fill:rgb(255,155,0);"/>
        </g>
        <g transform="matrix(0.679684,0,0,0.793046,338.785,-85.7612)">
            <rect x="56.941" y="217.37" width="115.145" height="122.052"/>
            <path d="M172.086,217.37L56.941,217.37L56.941,339.421L172.086,339.421L172.086,217.37ZM142.661,242.589L142.661,314.202C142.661,314.202 86.366,314.202 86.366,314.202C86.366,314.202 86.366,242.589 86.366,242.589L142.661,242.589Z"/>
        </g>
        <g transform="matrix(0.679684,0,0,0.793046,15.0742,20.1991)">
            <rect x="56.941" y="217.37" width="115.145" height="122.052"/>
            <path d="M172.086,217.37L56.941,217.37L56.941,339.421L172.086,339.421L172.086,217.37ZM142.661,242.589L142.661,314.202C142.661,314.202 86.366,314.202 86.366,314.202C86.366,314.202 86.366,242.589 86.366,242.589L142.661,242.589Z"/>
        </g>
        <g transform="matrix(0.679684,0,0,0.793046,132.744,-48.1876)">
            <rect x="56.941" y="217.37" width="115.145" height="122.052"/>
            <path d="M172.086,217.37L56.941,217.37L56.941,339.421L172.086,339.421L172.086,217.37ZM142.661,242.589L142.661,314.202C142.661,314.202 86.366,314.202 86.366,314.202C86.366,314.202 86.366,242.589 86.366,242.589L142.661,242.589Z"/>
        </g>
        <g transform="matrix(0.679684,0,0,0.793046,221.064,-72.7037)">
            <rect x="56.941" y="217.37" width="115.145" height="122.052"/>
            <path d="M172.086,217.37L56.941,217.37L56.941,339.421L172.086,339.421L172.086,217.37ZM142.661,242.589L142.661,314.202C142.661,314.202 86.366,314.202 86.366,314.202C86.366,314.202 86.366,242.589 86.366,242.589L142.661,242.589Z"/>
        </g>
    </g>
</svg>
