<?xml version="1.0" encoding="UTF-8" standalone="no"?>
<!DOCTYPE svg PUBLIC "-//W3C//DTD SVG 1.1//EN" "http://www.w3.org/Graphics/SVG/1.1/DTD/svg11.dtd">
<svg width="100%" height="100%" viewBox="0 0 1250 500" version="1.1" xmlns="http://www.w3.org/2000/svg" xmlns:xlink="http://www.w3.org/1999/xlink" xml:space="preserve" xmlns:serif="http://www.serif.com/" style="fill-rule:evenodd;clip-rule:evenodd;stroke-linejoin:round;stroke-miterlimit:2;">
    <g transform="matrix(1,0,0,1,8.75393,-5.25066)">
        <g transform="matrix(1.63967,0,0,1.63967,-51.066,-144.668)">
            <g transform="matrix(335.134,0,0,335.134,63.8677,387.497)">
                <path d="M0.143,-0.464L0.143,-0.714L0.214,-0.714L0.214,-0.536L0.143,-0.464ZM0,-0L0.143,-0L0.143,-0.321L0.173,-0.352L0.232,-0L0.375,-0L0.255,-0.413L0.357,-0.464L0.357,-0.786C0.357,-0.805 0.35,-0.822 0.336,-0.836C0.322,-0.85 0.305,-0.857 0.286,-0.857L0,-0.857L0,-0Z" style="fill:rgb(255,159,0);fill-rule:nonzero;"/>
            </g>
            <g transform="matrix(335.134,0,0,335.134,189.461,387.497)">
                <path d="M0.143,-0.464L0.143,-0.714L0.214,-0.714L0.214,-0.536L0.143,-0.464ZM0,-0L0.143,-0L0.143,-0.321L0.214,-0.393L0.214,-0L0.357,-0L0.357,-0.786C0.357,-0.805 0.35,-0.822 0.336,-0.836C0.322,-0.85 0.305,-0.857 0.286,-0.857L0.071,-0.857C0.052,-0.857 0.035,-0.85 0.021,-0.836C0.007,-0.822 0,-0.805 0,-0.785L0,-0Z" style="fill:rgb(255,159,0);fill-rule:nonzero;"/>
            </g>
            <g transform="matrix(335.134,0,0,335.134,315.055,387.497)">
                <path d="M0.071,-0L0.274,-0C0.294,-0 0.311,-0.007 0.325,-0.021C0.339,-0.035 0.346,-0.052 0.346,-0.071L0.346,-0.536L0.131,-0.393L0.131,-0.571L0.203,-0.571L0.203,-0.5L0.346,-0.571L0.346,-0.643C0.346,-0.663 0.339,-0.679 0.325,-0.693C0.311,-0.707 0.294,-0.714 0.274,-0.714L0.071,-0.714C0.052,-0.714 0.035,-0.707 0.021,-0.693C0.007,-0.679 -0,-0.662 -0,-0.643L-0,-0.178L0.203,-0.321L0.203,-0.143L0.131,-0.143L0.131,-0.214L-0,-0.143L-0,-0.071C-0,-0.052 0.007,-0.035 0.021,-0.021C0.035,-0.007 0.052,-0 0.071,-0Z" style="fill:rgb(255,159,0);fill-rule:nonzero;"/>
            </g>
            <g transform="matrix(335.134,0,0,335.134,436.802,387.497)">
                <path d="M0.138,-0L0.303,-0L0.303,-0.143L0.21,-0.143L0.21,-0.5L0.296,-0.545L0.296,-0.688L0.21,-0.643L0.21,-0.857L0.067,-0.857L0.067,-0.571L0,-0.535L0,-0.392L0.067,-0.428L0.067,-0.071C0.067,-0.052 0.074,-0.035 0.087,-0.021L0.138,-0Z" style="fill:rgb(255,159,0);fill-rule:nonzero;"/>
            </g>
            <g transform="matrix(335.134,0,0,335.134,546.932,387.497)">
                <path d="M0,-0L0.143,-0L0.143,-0.571L0.178,-0.571L0.178,-0.428L0.31,-0.5L0.31,-0.643C0.31,-0.663 0.303,-0.679 0.289,-0.693C0.275,-0.707 0.258,-0.714 0.239,-0.714L0.178,-0.714C0.169,-0.714 0.16,-0.707 0.153,-0.693C0.146,-0.679 0.143,-0.662 0.143,-0.643L0.143,-0.714L-0,-0.714L0,-0Z" style="fill:rgb(255,159,0);fill-rule:nonzero;"/>
            </g>
            <g transform="matrix(335.134,0,0,335.134,656.734,387.497)">
                <path d="M0.214,-0.143L0.143,-0.143L0.143,-0.571L0.214,-0.571L0.214,-0.143ZM0.071,-0L0.286,-0C0.305,-0 0.322,-0.007 0.336,-0.021C0.35,-0.035 0.357,-0.052 0.357,-0.071L0.357,-0.643C0.357,-0.663 0.35,-0.679 0.336,-0.693C0.322,-0.707 0.305,-0.714 0.286,-0.714L0.071,-0.714C0.052,-0.714 0.035,-0.707 0.021,-0.693C0.007,-0.679 0,-0.662 0,-0.643L0,-0.071C0,-0.052 0.007,-0.035 0.021,-0.021C0.035,-0.007 0.052,-0 0.071,-0Z" style="fill:rgb(255,159,0);fill-rule:nonzero;"/>
            </g>
        </g>
        <g transform="matrix(1.04536,-0.518694,0.491977,0.991511,-174.093,-4.20116)">
            <ellipse cx="246.647" cy="347.493" rx="233.32" ry="92.704" style="fill:rgb(177,62,62);fill-opacity:0;"/>
            <path d="M246.647,252.256C224.535,252.622 203.174,254.301 182.912,256.808C159.189,259.743 137.007,263.989 116.967,269.306C107.234,271.888 97.988,274.641 89.339,277.702C41.415,294.666 11.581,319.809 11.406,347.493C11.167,369.11 28.916,389.225 59.071,405.895C67.893,410.772 77.708,415.515 88.538,419.749C110.915,428.496 137.346,435.545 166.524,440.312C191.502,444.393 218.49,446.674 246.647,447.109C280.94,447.445 313.603,445.134 343.022,439.894C366.187,435.768 387.307,429.785 405.773,422.879C419.253,417.839 431.352,412.276 441.682,406.078C450.135,401.006 457.43,395.557 463.456,389.861C477.367,376.71 484.695,362.281 484.207,347.493C484.064,343.33 483.293,339.268 482.01,335.257C474.532,311.881 446.69,290.396 404.677,275.478C362.89,260.641 307.418,251.839 246.647,252.256L246.647,252.256ZM246.647,257.322C306.67,257.735 361.326,267.214 402.446,282.34C441.418,296.676 468.54,315.651 474.657,337.697C475.55,340.914 475.84,344.197 475.726,347.493C475.326,359.615 468.09,370.616 456.084,380.642C450.317,385.458 443.415,389.945 435.572,394.248C425.623,399.706 414.161,404.802 401.349,409.274C383.414,415.534 362.884,420.446 340.545,424.413C311.837,429.51 280.108,432.956 246.647,433.284C219.055,433.71 192.579,432.118 167.982,429.053C139.291,425.478 113.197,419.809 90.926,412.404C80.2,408.838 70.322,405.025 61.559,400.639C32.747,386.221 15.47,367.742 15.247,347.493C15.078,320.841 44.187,297.064 90.124,280.116C98.679,276.96 107.806,273.999 117.474,271.428C137.41,266.127 159.554,262.145 183.21,259.751C203.39,257.709 224.674,256.959 246.647,257.322L246.647,257.322Z"/>
        </g>
        <g transform="matrix(0.675576,0,0,0.793046,339.459,-116.094)">
            <rect x="56.941" y="217.37" width="115.145" height="122.052" style="fill:rgb(255,158,0);"/>
            <path d="M172.086,217.37L56.941,217.37L56.941,339.421L172.086,339.421L172.086,217.37ZM142.482,242.589L142.482,314.202C142.482,314.202 86.545,314.202 86.545,314.202C86.545,314.202 86.545,242.589 86.545,242.589L142.482,242.589Z" style="fill:rgb(255,156,0);"/>
        </g>
        <g transform="matrix(0.568788,0,0,0.439383,291.125,-55.9116)">
            <rect x="56.941" y="217.37" width="115.145" height="122.052" style="fill:rgb(255,158,0);"/>
            <path d="M172.086,217.37L56.941,217.37L56.941,339.421L172.086,339.421L172.086,217.37ZM136.924,262.888L136.924,293.903C136.924,293.903 92.103,293.903 92.103,293.903C92.103,293.903 92.103,262.888 92.103,262.888L136.924,262.888Z" style="fill:rgb(255,156,0);"/>
        </g>
        <g transform="matrix(0.679684,0,0,0.793046,221.029,-114.811)">
            <rect x="56.941" y="217.37" width="115.145" height="122.052" style="fill:rgb(255,158,0);"/>
            <path d="M172.086,217.37L56.941,217.37L56.941,339.421L172.086,339.421L172.086,217.37ZM142.661,242.589L142.661,314.202C142.661,314.202 86.366,314.202 86.366,314.202C86.366,314.202 86.366,242.589 86.366,242.589L142.661,242.589Z" style="fill:rgb(255,158,0);"/>
        </g>
        <g transform="matrix(0.679684,0,0,0.793046,132.71,-107.763)">
            <rect x="56.941" y="217.37" width="115.145" height="122.052" style="fill:rgb(255,157,0);"/>
            <path d="M172.086,217.37L56.941,217.37L56.941,339.421L172.086,339.421L172.086,217.37ZM142.661,242.589L142.661,314.202C142.661,314.202 86.366,314.202 86.366,314.202C86.366,314.202 86.366,242.589 86.366,242.589L142.661,242.589Z" style="fill:rgb(255,156,0);"/>
        </g>
        <g transform="matrix(0.678764,0,0,0.977589,15.233,-87.4414)">
            <rect x="56.941" y="217.37" width="115.145" height="122.052" style="fill:rgb(255,158,0);"/>
            <path d="M172.086,217.37L56.941,217.37L56.941,339.421L172.086,339.421L172.086,217.37ZM142.621,237.828L142.621,318.963C142.621,318.963 86.406,318.963 86.406,318.963C86.406,318.963 86.406,237.828 86.406,237.828L142.621,237.828Z" style="fill:rgb(255,157,0);"/>
        </g>
    </g>
</svg>
